PathFileType	4	(X/Y/Z)	C:/Users/opensim2020/Desktop/walking_exp_matlab/subject01_walking05_straight_04.trc																																																																																																																															
DataRate	CameraRate	NumFrames	NumMarkers	Units	OrigDataRate	OrigDataStartFrame	OrigNumFrames																																																																																																																											
100	100	8	43	mm	100	2951	283																																																																																																																											
Frame#	Time	LFHD			RFHD			LBHD			RBHD			C7			T10			CLAV			STRN			RBAK			LSHO			LUPA			LELB			LFRM			LWRA			LWRB			LFIN			RSHO			RUPA			RELB			RFRM			RWRA			RWRB			RFIN			LASI			RASI			LPSI			RPSI			LTHI			LKNE			LTIB			LANK			LHEE			LTOE			RTHI			RKNE			RTIB			RANK			RHEE			RTOE			*39			*40			*41			*42		
		X1	Y1	Z1	X2	Y2	Z2	X3	Y3	Z3	X4	Y4	Z4	X5	Y5	Z5	X6	Y6	Z6	X7	Y7	Z7	X8	Y8	Z8	X9	Y9	Z9	X10	Y10	Z10	X11	Y11	Z11	X12	Y12	Z12	X13	Y13	Z13	X14	Y14	Z14	X15	Y15	Z15	X16	Y16	Z16	X17	Y17	Z17	X18	Y18	Z18	X19	Y19	Z19	X20	Y20	Z20	X21	Y21	Z21	X22	Y22	Z22	X23	Y23	Z23	X24	Y24	Z24	X25	Y25	Z25	X26	Y26	Z26	X27	Y27	Z27	X28	Y28	Z28	X29	Y29	Z29	X30	Y30	Z30	X31	Y31	Z31	X32	Y32	Z32	X33	Y33	Z33	X34	Y34	Z34	X35	Y35	Z35	X36	Y36	Z36	X37	Y37	Z37	X38	Y38	Z38	X39	Y39	Z39	X40	Y40	Z40	X41	Y41	Z41	X42	Y42	Z42	X43	Y43	Z43
																																																																																																																																		
177	1.76	200.52885	1668.43872	-1500.70398	227.70244	1674.84534	-1389.70667	85.45989	1623.88208	-1478.35864	111.2586	1629.54114	-1359.73755	52.89227	1427.61938	-1428.25537	24.09525	1135.38733	-1412.96851	196.66689	1363.74854	-1445.30847	243.32458	1210.09595	-1451.46558	15.01699	1233.62317	-1338.63794	111.7178	1390.09607	-1597.85596	48.61586	1207.69678	-1665.526	19.09595	1059.60303	-1651.32654	39.38501	947.46899	-1676.58313	108.54707	824.65576	-1668.86084	48.59658	824.87897	-1678.40942	84.54481	747.10486	-1688.23596	150.24658	1395.00562	-1288.42798	120.33613	1200.29431	-1170.00867	137.20715	1074.91748	-1154.32922	213.44901	977.3924	-1129.86987	334.29514	908.90247	-1160.71252	299.05392	890.56525	-1118.50708	367.71231	840.16052	-1123.96204	189.05312	932.76514	-1536.5531	198.81021	927.89209	-1319.55469	5.99401	939.84222	-1479.11157	13.2482	945.14587	-1335.45264	246.23135	620.13824	-1607.86523	276.35587	488.95313	-1590.82458	240.76804	304.8855	-1599.02771	246.13876	81.6581	-1551.90747	214.7229	47.23599	-1490.08643	388.33542	56.35275	-1571.78394	104.00027	598.75464	-1274.79834	83.29179	440.77008	-1304.41492	3.5898	282.71268	-1299.55981	-57.56326	85.17171	-1355.67908	-113.8394	56.54179	-1403.30798	77.27306	33.22253	-1368.50403	212.82498	1708.34009	-1410.86047	-1973.11609	1023.35333	3101.86865	-2012.51917	1021.96478	3140.56885	NaN	NaN	NaN
178	1.77	210.16832	1667.44995	-1501.96545	237.46175	1673.94482	-1390.9397	95.20097	1622.89209	-1479.5011	120.53307	1628.83252	-1360.82288	62.5009	1426.71301	-1429.18738	33.68909	1134.48669	-1413.90356	206.39005	1363.02527	-1446.30896	253.03543	1209.25037	-1452.10852	24.61424	1232.88159	-1339.45166	121.41269	1389.1355	-1598.86316	57.55947	1206.8783	-1666.20898	27.44627	1058.99219	-1651.33728	46.22149	946.66986	-1676.28894	113.56863	822.9151	-1668.38269	53.62221	823.9798	-1677.8595	88.27519	745.61951	-1687.38708	159.86307	1394.30078	-1289.38306	130.15616	1200.06616	-1170.43115	147.05794	1074.75842	-1154.22888	224.36064	978.03009	-1130.00366	346.34073	911.48541	-1161.06458	311.59805	892.37323	-1118.77588	380.90268	843.41895	-1124.27625	199.18111	931.90344	-1536.90845	207.7417	927.2876	-1319.81482	15.75402	939.09369	-1480.20776	22.36917	944.92694	-1336.68909	253.1051	617.86389	-1608.42749	284.62692	487.16772	-1590.12842	258.0675	302.33047	-1600.05591	275.18884	78.82537	-1554.03455	244.42897	43.1959	-1492.96375	418.88425	60.44859	-1572.23694	109.99653	598.75293	-1274.73792	87.7566	440.62982	-1304.27185	6.48796	283.41611	-1299.51819	-56.85389	86.50961	-1355.29651	-113.40084	58.52882	-1402.95386	77.42212	33.21631	-1368.36755	222.49203	1707.37219	-1412.1344	-1973.05835	1023.21753	3101.88989	-2012.54492	1021.95355	3140.59473	NaN	NaN	NaN
179	1.78	219.89272	1666.43335	-1503.21582	247.16382	1673.04114	-1392.19617	104.86671	1621.89026	-1480.70032	130.68137	1627.77759	-1362.13013	72.12302	1425.74524	-1430.34302	43.31133	1133.57019	-1415.09094	216.00005	1361.97876	-1447.22498	262.70016	1208.28638	-1452.73438	34.25232	1232.09473	-1340.39673	131.22285	1388.14551	-1599.95471	66.80914	1205.95459	-1667.00647	36.07451	1058.45544	-1651.51416	53.35669	945.92926	-1676.17627	119.00317	821.24304	-1668.099	59.01517	823.14008	-1677.45203	92.41266	743.99286	-1686.56494	169.43286	1393.58203	-1290.49146	139.82413	1199.75964	-1170.96924	156.89821	1074.49854	-1154.38391	235.87856	978.87262	-1130.25793	357.98856	913.68213	-1161.4928	323.62936	894.09991	-1119.32129	393.68805	846.26984	-1124.66748	209.45511	930.95465	-1537.28528	216.90498	926.49384	-1320.10376	25.6877	938.33728	-1481.44128	31.64108	944.53613	-1337.93945	259.77533	615.19226	-1608.99805	292.9169	485.44934	-1589.56201	275.02136	300.4964	-1601.11804	302.90479	77.49836	-1556.0127	273.33234	39.61209	-1495.30994	447.99796	65.31284	-1572.28174	116.22626	598.49969	-1274.776	92.67249	440.61765	-1304.20605	9.55844	284.33453	-1299.62756	-55.85474	87.9642	-1354.94019	-112.92542	60.57236	-1402.46118	77.53181	33.23388	-1368.30713	232.18887	1706.39087	-1413.40662	-1972.94482	1023.84259	3101.93921	-2012.61951	1022.07483	3140.64624	NaN	NaN	NaN
180	1.79	229.58907	1665.44617	-1504.56152	256.90341	1672.13086	-1393.51831	114.62384	1620.91223	-1482.04382	140.40211	1626.87854	-1363.40247	81.70512	1424.76355	-1431.69775	53.046	1132.61121	-1416.35254	225.68805	1361.07642	-1448.32434	272.58856	1207.38269	-1453.43933	43.89742	1231.28125	-1341.52625	141.15028	1387.12939	-1601.16553	76.29906	1205.00134	-1668.04626	44.9766	1057.81421	-1651.96399	60.81059	945.13531	-1676.27112	124.83599	819.60925	-1668.0564	64.81638	822.30725	-1677.25281	96.9464	742.5741	-1685.99927	178.81987	1392.8125	-1291.64001	149.50293	1199.35669	-1171.60095	166.63977	1074.17102	-1154.57605	246.56172	979.31427	-1130.62451	369.31573	915.58514	-1161.98657	335.27594	895.48389	-1119.90149	405.96545	848.7478	-1125.11169	219.87506	929.94592	-1537.66821	226.19276	925.67047	-1320.42761	35.70441	937.56012	-1482.83728	41.00604	944.16223	-1339.35046	266.73505	612.65033	-1610.22717	301.19678	483.80609	-1589.18762	291.24567	299.14294	-1602.00452	328.99155	76.90238	-1557.67798	299.83087	38.0499	-1497.67969	474.94302	70.23366	-1572.30457	122.82471	598.42432	-1274.82715	97.80822	440.40845	-1304.16797	12.66216	285.40176	-1299.71838	-55.15525	89.35818	-1354.7821	-112.42532	62.92219	-1402.15918	77.65677	33.18281	-1368.16101	241.88939	1705.47375	-1414.74036	-1973.03735	1023.32343	3101.89038	-2012.49426	1021.935	3140.56909	NaN	NaN	NaN
181	1.8	239.42477	1664.44604	-1505.90369	266.57626	1671.19592	-1394.84875	124.31856	1619.93213	-1483.46631	150.02893	1625.94739	-1364.82922	91.36026	1423.70569	-1433.0542	62.90384	1131.58264	-1417.72241	235.39331	1360.17175	-1449.46875	282.45193	1206.50085	-1454.21167	53.58858	1230.35925	-1342.80078	151.15694	1386.05908	-1602.47229	86.03339	1203.94385	-1669.1853	54.14291	1057.15076	-1652.58557	68.59441	944.29883	-1676.60486	131.01335	817.82147	-1667.73303	70.99847	821.42023	-1677.25452	101.85489	741.20197	-1685.74854	188.28918	1392.06018	-1292.88123	159.08606	1198.91565	-1172.40698	176.33585	1073.80627	-1154.97388	257.03931	979.63409	-1131.07556	380.40158	917.07043	-1162.54236	346.5267	896.58545	-1120.46252	417.69821	850.68195	-1125.51575	230.51424	928.85352	-1538.03735	235.27261	924.64569	-1320.78687	46.00201	936.78601	-1484.26099	50.66914	943.61395	-1340.75183	273.85483	610.09833	-1611.39355	309.46628	482.40543	-1589.21033	306.44061	298.01538	-1602.74829	353.11136	77.01264	-1558.9624	324.95456	36.57855	-1499.16162	499.5477	75.17269	-1572.25403	129.52455	598.18616	-1274.90979	103.04414	440.25717	-1304.31543	16.1391	286.27402	-1299.62048	-54.04676	90.99978	-1354.26074	-111.7622	65.12895	-1401.55786	77.78533	33.22277	-1368.11987	251.5499	1704.53101	-1416.09668	-1973.16541	1023.13086	3101.95581	-2012.54553	1021.97388	3140.54053	NaN	NaN	NaN
182	1.81	249.18771	1663.5188	-1507.31689	276.24039	1670.30688	-1396.22388	134.09317	1619.02795	-1484.9845	159.68781	1625.09668	-1366.35352	101.07846	1422.69312	-1434.67847	72.84802	1130.55066	-1419.20959	245.30974	1359.29724	-1450.68567	292.44501	1205.70313	-1455.04858	63.27192	1229.41089	-1344.25024	161.28156	1384.99548	-1603.89771	96.01804	1202.88135	-1670.49133	63.60273	1056.41663	-1653.45496	76.76849	943.44806	-1677.08997	137.53743	815.95514	-1667.83069	77.66167	820.55408	-1677.4856	107.18031	739.79913	-1685.70435	197.62665	1391.3092	-1294.23462	168.56326	1198.49768	-1173.38245	185.93707	1073.40588	-1155.58142	267.2644	979.75842	-1131.60364	391.05838	918.20691	-1163.11646	357.34256	897.37988	-1120.96948	429.07806	852.33173	-1126.05359	241.23422	927.60651	-1538.50085	244.86777	923.76202	-1321.17822	56.40658	935.99438	-1485.82214	60.32886	943.19275	-1342.30688	281.83829	608.22528	-1613.14795	317.82559	481.09213	-1589.52417	320.6066	296.91577	-1603.26807	374.70447	77.4021	-1559.56714	347.70404	36.0233	-1500.05042	521.83118	79.88318	-1571.8064	136.53862	597.93475	-1275.13416	108.72871	440.08667	-1304.27417	19.6615	287.26062	-1299.7655	-52.99939	92.93433	-1353.98206	-111.08661	67.76794	-1401.18921	78.02112	33.15536	-1367.9679	261.23993	1703.62708	-1417.53674	-1973.07153	1023.28589	3101.8689	-2012.51697	1021.99536	3140.71069	NaN	NaN	NaN
183	1.82	259.01108	1662.63379	-1508.78003	285.88434	1669.4563	-1397.63965	143.90306	1618.14014	-1486.5946	169.26753	1624.28345	-1367.94446	110.77013	1421.67249	-1436.43323	82.91125	1129.51941	-1420.76367	255.19296	1358.46997	-1451.93835	302.61673	1204.98059	-1455.96643	72.99302	1228.45374	-1345.9425	171.6519	1383.82629	-1605.36621	106.2782	1201.74768	-1671.93567	73.38195	1055.6095	-1654.58411	85.33454	942.53766	-1677.87744	144.57634	814.30444	-1667.89648	84.88232	819.81384	-1678.18677	113.34297	738.37872	-1685.62183	207.0209	1390.65918	-1295.53906	177.90758	1197.97534	-1174.5144	195.51381	1072.93054	-1156.31274	277.33218	979.7417	-1132.28625	401.43634	918.96136	-1163.73499	367.82294	897.94849	-1121.51062	439.88483	853.46179	-1126.57141	252.1601	926.36414	-1538.89868	254.68675	922.83514	-1321.54932	66.96165	935.25598	-1487.37573	70.31863	942.54993	-1343.77502	290.43546	606.54297	-1614.22888	326.40979	479.80179	-1590.14844	333.65564	295.99966	-1603.74158	393.8826	77.87039	-1559.88953	367.7872	35.5466	-1500.3656	541.42694	83.87603	-1571.07751	143.763	597.61914	-1275.31555	114.64153	439.97284	-1304.38721	23.96096	288.19455	-1299.51599	-51.6337	94.66617	-1353.49573	-110.23624	70.57272	-1400.64246	78.18833	33.24445	-1367.91577	270.92764	1702.7583	-1418.95557	-1973.18945	1023.43835	3101.92261	-2012.56262	1021.97955	3140.59326	NaN	NaN	NaN
184	1.83	268.84897	1661.73401	-1510.29016	295.49619	1668.66455	-1399.08875	153.69067	1617.27686	-1488.31201	178.36508	1623.71582	-1369.45422	120.56567	1420.67749	-1438.16467	93.03503	1128.49097	-1422.4436	265.2724	1357.80237	-1453.27917	312.87051	1204.26392	-1456.94336	82.76738	1227.39368	-1347.75854	182.03036	1382.75366	-1606.93542	116.78565	1200.54187	-1673.50293	83.39585	1054.7467	-1655.88416	94.2893	941.6001	-1678.927	152.13281	812.638	-1668.34973	92.57221	818.95013	-1679.02039	120.03744	737.0014	-1685.86487	216.31186	1389.83032	-1297.0509	187.11041	1197.40564	-1175.7771	204.88347	1072.4364	-1157.28271	287.05801	979.56793	-1133.07971	411.47424	919.3822	-1164.35852	378.05734	898.30048	-1122.30408	450.25577	854.11194	-1127.10205	263.10782	925.06244	-1539.37183	264.60358	921.86804	-1321.97144	77.59467	934.5047	-1489.02429	80.2811	941.94995	-1345.32568	299.96896	605.32343	-1614.78809	335.46234	478.65445	-1590.74475	346.25308	294.68665	-1603.95825	410.56522	78.01984	-1559.78857	384.67526	35.6503	-1500.3302	558.45514	86.77353	-1570.11218	151.22469	597.46393	-1275.52954	121.03204	439.69464	-1304.48389	27.95314	289.32193	-1299.80347	-50.45062	96.84344	-1352.97559	-109.24395	73.62293	-1400.05176	78.54129	33.1847	-1367.82202	280.60965	1701.96655	-1420.50403	-1973.1261	1023.27179	3101.9502	-2012.57385	1022.03467	3140.64526	NaN	NaN	NaN
